<?xml version="1.0" encoding="UTF-8"?>
<svg xmlns="http://www.w3.org/2000/svg" xmlns:xlink="http://www.w3.org/1999/xlink" width="75pt" height="74.999997pt" viewBox="0 0 75 74.999997" version="1.2">
<defs>
<clipPath id="clip1">
  <path d="M 7.503906 7.496094 L 36.496094 7.496094 L 36.496094 37.496094 L 7.503906 37.496094 Z M 7.503906 7.496094 "/>
</clipPath>
<clipPath id="clip2">
  <path d="M 38.503906 39 L 67.496094 39 L 67.496094 68.847656 L 38.503906 68.847656 Z M 38.503906 39 "/>
</clipPath>
<clipPath id="clip3">
  <path d="M 37.496094 7.496094 L 67.496094 7.496094 L 67.496094 37.496094 L 37.496094 37.496094 Z M 37.496094 7.496094 "/>
</clipPath>
<clipPath id="clip4">
  <path d="M 7.496094 39 L 37.496094 39 L 37.496094 67.269531 L 7.496094 67.269531 Z M 7.496094 39 "/>
</clipPath>
</defs>
<g id="surface1">
<g clip-path="url(#clip1)" clip-rule="nonzero">
<path style=" stroke:none;fill-rule:nonzero;fill:rgb(0%,0%,0%);fill-opacity:1;" d="M 7.507812 11.828125 C 7.507812 13.765625 8.597656 15.929688 10.722656 18.050781 C 12.265625 19.617188 14.664062 19.941406 16.566406 18.878906 L 33.140625 36.714844 C 33.910156 37.496094 35.132812 37.496094 35.902344 36.714844 C 36.308594 36.34375 36.488281 35.839844 36.488281 35.285156 C 36.488281 34.734375 36.261719 34.226562 35.902344 33.855469 L 18.558594 16.667969 C 18.875 15.976562 19.054688 15.238281 19.054688 14.503906 C 19.054688 13.164062 18.558594 11.921875 17.652344 11 C 15.976562 9.292969 14.210938 8.1875 12.625 7.820312 C 11.085938 7.496094 9.683594 7.867188 8.6875 8.878906 C 7.917969 9.710938 7.507812 10.675781 7.507812 11.828125 Z M 12.398438 8.789062 C 13.847656 9.109375 15.433594 10.125 16.972656 11.691406 C 17.742188 12.476562 18.152344 13.441406 18.152344 14.546875 C 18.152344 15.238281 17.96875 15.976562 17.605469 16.574219 C 17.515625 16.761719 17.515625 16.992188 17.699219 17.128906 L 35.265625 34.546875 C 35.675781 34.964844 35.675781 35.65625 35.265625 36.070312 C 34.859375 36.484375 34.179688 36.484375 33.773438 36.070312 L 16.929688 18.003906 C 16.792969 17.820312 16.519531 17.820312 16.339844 17.957031 C 14.753906 19.019531 12.671875 18.789062 11.3125 17.453125 C 9.457031 15.46875 8.414062 13.488281 8.414062 11.828125 C 8.414062 10.953125 8.730469 10.171875 9.277344 9.570312 C 10.046875 8.789062 11.132812 8.511719 12.398438 8.789062 Z M 12.398438 8.789062 "/>
</g>
<g clip-path="url(#clip2)" clip-rule="nonzero">
<path style=" stroke:none;fill-rule:nonzero;fill:rgb(0%,0%,0%);fill-opacity:1;" d="M 38.503906 41.183594 C 38.503906 41.6875 38.683594 42.191406 39.042969 42.558594 L 39.089844 42.605469 L 42.878906 46.460938 L 42.515625 46.828125 C 42.109375 47.238281 41.886719 47.835938 41.886719 48.433594 C 41.886719 49.027344 42.109375 49.625 42.515625 50.039062 L 56.675781 64.449219 C 57.082031 64.863281 57.667969 65.089844 58.253906 65.089844 C 58.839844 65.089844 59.425781 64.863281 59.832031 64.449219 L 60.191406 64.082031 L 63.980469 67.9375 C 64.746094 68.714844 65.964844 68.714844 66.730469 67.9375 C 67.496094 67.15625 67.496094 65.960938 66.777344 65.183594 L 66.730469 65.136719 L 62.941406 61.28125 L 63.257812 60.914062 C 63.664062 60.5 63.890625 59.90625 63.890625 59.308594 C 63.890625 58.710938 63.664062 58.117188 63.257812 57.703125 L 49.101562 43.292969 C 48.242188 42.421875 46.84375 42.421875 45.945312 43.292969 L 45.582031 43.660156 L 41.75 39.757812 C 40.984375 38.980469 39.765625 38.980469 39 39.757812 C 38.683594 40.125 38.503906 40.632812 38.503906 41.183594 Z M 66.054688 65.734375 C 66.054688 65.734375 66.054688 65.777344 66.054688 65.734375 C 66.503906 66.191406 66.503906 66.878906 66.101562 67.292969 C 65.695312 67.707031 65.015625 67.707031 64.613281 67.292969 L 60.824219 63.4375 L 62.3125 61.925781 Z M 48.46875 43.933594 L 62.628906 58.34375 C 62.851562 58.574219 63.035156 58.941406 63.035156 59.308594 C 63.035156 59.675781 62.898438 59.996094 62.628906 60.273438 L 59.15625 63.804688 C 58.886719 64.035156 58.570312 64.21875 58.207031 64.21875 C 57.847656 64.21875 57.53125 64.082031 57.261719 63.804688 L 43.148438 49.394531 C 42.652344 48.890625 42.652344 48.019531 43.148438 47.515625 L 46.621094 43.980469 C 47.117188 43.429688 47.972656 43.429688 48.46875 43.933594 Z M 41.164062 40.402344 L 44.996094 44.300781 L 43.507812 45.816406 L 39.722656 41.960938 C 39.722656 41.960938 39.675781 41.917969 39.675781 41.917969 C 39.269531 41.503906 39.269531 40.816406 39.675781 40.402344 C 40.082031 39.988281 40.757812 39.988281 41.164062 40.402344 Z M 41.164062 40.402344 "/>
</g>
<path style=" stroke:none;fill-rule:nonzero;fill:rgb(0%,0%,0%);fill-opacity:1;" d="M 55.546875 53.574219 C 55.546875 53.710938 55.59375 53.800781 55.683594 53.894531 L 61.140625 59.445312 C 61.320312 59.628906 61.589844 59.628906 61.769531 59.445312 C 61.953125 59.261719 61.953125 58.988281 61.769531 58.804688 L 56.316406 53.25 C 56.132812 53.066406 55.863281 53.066406 55.683594 53.25 C 55.59375 53.34375 55.546875 53.480469 55.546875 53.574219 Z M 55.546875 53.574219 "/>
<g clip-path="url(#clip3)" clip-rule="nonzero">
<path style=" stroke:none;fill-rule:nonzero;fill:rgb(0%,0%,0%);fill-opacity:1;" d="M 41.242188 36.742188 L 51.425781 26.738281 C 51.792969 26.378906 51.992188 25.902344 51.992188 25.398438 C 51.992188 25.277344 51.980469 25.160156 51.960938 25.042969 C 53.054688 23.789062 54.246094 22.554688 55.367188 21.515625 C 56.429688 20.535156 57.078125 20.046875 57.367188 19.859375 C 57.800781 19.960938 58.558594 20.101562 59.433594 20.007812 C 60.789062 19.863281 61.988281 19.203125 62.902344 18.101562 C 62.90625 18.09375 62.910156 18.089844 62.914062 18.085938 L 67.300781 12.574219 C 67.433594 12.410156 67.496094 12.210938 67.496094 12.011719 C 67.496094 11.757812 67.390625 11.503906 67.183594 11.324219 C 66.96875 11.136719 66.691406 11.066406 66.425781 11.101562 C 66.445312 11.027344 66.457031 10.949219 66.457031 10.875 C 66.457031 10.636719 66.363281 10.402344 66.179688 10.222656 C 65.832031 9.882812 65.273438 9.867188 64.90625 10.183594 L 64.132812 10.851562 L 64.757812 10.148438 C 64.910156 9.976562 64.988281 9.761719 64.988281 9.546875 C 64.988281 9.308594 64.894531 9.070312 64.710938 8.894531 C 64.503906 8.691406 64.222656 8.605469 63.953125 8.632812 C 63.957031 8.601562 63.957031 8.566406 63.957031 8.535156 C 63.957031 8.316406 63.882812 8.101562 63.726562 7.929688 C 63.402344 7.566406 62.847656 7.511719 62.457031 7.804688 L 56.792969 12.0625 C 56.785156 12.066406 56.777344 12.074219 56.769531 12.078125 C 55.480469 13.113281 54.796875 14.492188 54.796875 16.066406 C 54.796875 16.671875 54.902344 17.1875 54.980469 17.511719 C 54.789062 17.796875 54.292969 18.4375 53.292969 19.480469 C 52.234375 20.582031 50.976562 21.753906 49.699219 22.828125 C 49.09375 22.714844 48.441406 22.890625 47.976562 23.347656 L 37.789062 33.351562 C 37.425781 33.710938 37.222656 34.1875 37.222656 34.695312 C 37.222656 35.199219 37.425781 35.675781 37.789062 36.035156 L 38.511719 36.742188 C 39.261719 37.480469 40.488281 37.480469 41.242188 36.742188 Z M 55.964844 17.601562 C 55.964844 17.59375 55.964844 17.585938 55.964844 17.582031 C 55.910156 17.371094 55.734375 16.796875 55.734375 16.066406 C 55.734375 15.097656 56.042969 13.84375 57.359375 12.789062 L 63.023438 8.535156 L 57.964844 13.5 C 57.863281 13.601562 57.8125 13.734375 57.8125 13.863281 C 57.8125 13.996094 57.863281 14.125 57.964844 14.226562 C 58.167969 14.425781 58.5 14.425781 58.703125 14.226562 L 64.054688 9.546875 L 59.339844 14.851562 C 59.238281 14.953125 59.1875 15.082031 59.1875 15.214844 C 59.1875 15.347656 59.238281 15.476562 59.339844 15.578125 C 59.542969 15.777344 59.875 15.777344 60.078125 15.578125 L 65.523438 10.875 L 60.765625 16.253906 C 60.664062 16.355469 60.613281 16.484375 60.613281 16.617188 C 60.613281 16.746094 60.664062 16.878906 60.765625 16.980469 C 60.96875 17.179688 61.300781 17.179688 61.503906 16.980469 L 66.5625 12.011719 L 62.175781 17.519531 C 60.292969 19.789062 57.800781 19.019531 57.300781 18.894531 C 56.960938 18.808594 54.308594 20.996094 51.511719 24.148438 C 51.484375 24.117188 51.457031 24.085938 51.425781 24.054688 L 50.707031 23.347656 C 50.675781 23.320312 50.644531 23.289062 50.613281 23.265625 C 53.761719 20.570312 55.964844 18.011719 55.964844 17.601562 Z M 39.171875 36.09375 L 38.449219 35.386719 C 38.253906 35.195312 38.15625 34.945312 38.15625 34.695312 C 38.15625 34.445312 38.253906 34.191406 38.449219 34 L 48.636719 23.996094 C 49.023438 23.613281 49.65625 23.613281 50.046875 23.996094 L 50.765625 24.707031 C 50.960938 24.898438 51.058594 25.148438 51.058594 25.398438 C 51.058594 25.648438 50.960938 25.898438 50.765625 26.089844 L 40.578125 36.09375 C 40.191406 36.476562 39.558594 36.476562 39.171875 36.09375 Z M 39.171875 36.09375 "/>
</g>
<g clip-path="url(#clip4)" clip-rule="nonzero">
<path style=" stroke:none;fill-rule:nonzero;fill:rgb(0%,0%,0%);fill-opacity:1;" d="M 33.699219 39.238281 C 33.210938 39.429688 32.699219 39.792969 32.089844 40.375 C 31.070312 41.347656 29.882812 42.855469 28.507812 44.597656 C 26.445312 47.210938 23.878906 50.460938 20.890625 53.144531 C 20.882812 53.152344 20.871094 53.160156 20.863281 53.171875 C 16.113281 57.828125 11.203125 62.644531 8.027344 64.792969 C 7.6875 65.023438 7.492188 65.394531 7.492188 65.8125 C 7.492188 66.539062 8.078125 67.167969 8.800781 67.21875 C 9.589844 67.273438 10.625 67.121094 11.710938 66.792969 C 13 66.40625 14.296875 65.800781 15.566406 64.992188 C 17.078125 64.03125 18.496094 62.820312 19.773438 61.386719 C 21.234375 59.753906 22.515625 57.835938 23.589844 55.679688 C 26.238281 52.71875 29.433594 50.167969 32.003906 48.113281 C 33.496094 46.921875 34.785156 45.890625 35.738281 44.976562 C 36.96875 43.792969 37.492188 42.925781 37.492188 42.082031 C 37.492188 41.671875 37.355469 41.28125 37.097656 40.949219 C 37.078125 40.921875 37.054688 40.894531 37.027344 40.867188 L 35.710938 39.542969 C 35.683594 39.519531 35.65625 39.492188 35.628906 39.472656 C 35.089844 39.042969 34.402344 38.960938 33.699219 39.238281 Z M 23.867188 54.003906 L 22.894531 54.980469 L 21.679688 53.761719 L 22.652344 52.78125 Z M 8.863281 66.296875 C 8.601562 66.277344 8.414062 66.027344 8.414062 65.8125 C 8.414062 65.710938 8.453125 65.621094 8.539062 65.558594 C 11.664062 63.445312 16.289062 58.945312 20.972656 54.351562 C 20.992188 54.375 21.007812 54.394531 21.027344 54.414062 C 21.027344 54.414062 22.398438 55.765625 22.488281 55.8125 C 17.992188 64.386719 11.25 66.457031 8.863281 66.296875 Z M 35.058594 40.199219 L 36.378906 41.523438 C 36.511719 41.691406 36.574219 41.878906 36.574219 42.082031 C 36.574219 44.148438 30.015625 47.898438 24.523438 53.359375 C 24.523438 53.355469 24.519531 53.351562 24.515625 53.347656 L 23.300781 52.128906 C 23.300781 52.125 23.296875 52.121094 23.292969 52.117188 C 29.253906 46.054688 33.164062 38.695312 35.058594 40.199219 Z M 35.058594 40.199219 "/>
</g>
</g>
</svg>
